{
  "accessors": [
    {
      "bufferView": 2,
      "componentType": 5126,
      "count": 1557,
      "max": [
        -49.401763916015625,
        26.029550552368164,
        -27.638315200805664
      ],
      "min": [
        -84.2646484375,
        -26.706830978393555,
        -39.25150680541992
      ],
      "type": "VEC3"
    },
    {
      "bufferView": 2,
      "byteOffset": 18684,
      "componentType": 5126,
      "count": 1557,
      "max": [
        1.0,
        1.0,
        1.0
      ],
      "min": [
        -1.0,
        -1.0,
        -1.0
      ],
      "type": "VEC3"
    },
    {
      "bufferView": 1,
      "componentType": 5126,
      "count": 1557,
      "max": [
        0.9998738169670105,
        -0.0001506805419921875
      ],
      "min": [
        0.00012626592069864273,
        -0.9998493194580078
      ],
      "type": "VEC2"
    },
    {
      "bufferView": 1,
      "byteOffset": 12456,
      "componentType": 5126,
      "count": 1557,
      "max": [
        0.9998738169670105,
        -0.0001506805419921875
      ],
      "min": [
        0.00012626592069864273,
        -0.9998493194580078
      ],
      "type": "VEC2"
    },
    {
      "bufferView": 1,
      "byteOffset": 24912,
      "componentType": 5126,
      "count": 1557,
      "max": [
        0.9998738169670105,
        -0.0001506805419921875
      ],
      "min": [
        0.00012626592069864273,
        -0.9998493194580078
      ],
      "type": "VEC2"
    },
    {
      "bufferView": 1,
      "byteOffset": 37368,
      "componentType": 5126,
      "count": 1557,
      "max": [
        0.9998738169670105,
        -0.0001506805419921875
      ],
      "min": [
        0.00012626592069864273,
        -0.9998493194580078
      ],
      "type": "VEC2"
    },
    {
      "bufferView": 0,
      "componentType": 5125,
      "count": 3186,
      "type": "SCALAR"
    },
    {
      "bufferView": 2,
      "byteOffset": 37368,
      "componentType": 5126,
      "count": 3635,
      "max": [
        -14.53887939453125,
        26.029563903808594,
        -27.638315200805664
      ],
      "min": [
        -49.401763916015625,
        -26.706830978393555,
        -39.25150680541992
      ],
      "type": "VEC3"
    },
    {
      "bufferView": 2,
      "byteOffset": 80988,
      "componentType": 5126,
      "count": 3635,
      "max": [
        1.0,
        1.0,
        1.0
      ],
      "min": [
        -1.0,
        -1.0,
        -1.0
      ],
      "type": "VEC3"
    },
    {
      "bufferView": 1,
      "byteOffset": 49824,
      "componentType": 5126,
      "count": 3635,
      "max": [
        0.9998796582221985,
        -0.00015795230865478516
      ],
      "min": [
        0.00012036971747875214,
        -0.9998419284820557
      ],
      "type": "VEC2"
    },
    {
      "bufferView": 1,
      "byteOffset": 78904,
      "componentType": 5126,
      "count": 3635,
      "max": [
        0.9998796582221985,
        -0.00015795230865478516
      ],
      "min": [
        0.00012036971747875214,
        -0.9998419284820557
      ],
      "type": "VEC2"
    },
    {
      "bufferView": 1,
      "byteOffset": 107984,
      "componentType": 5126,
      "count": 3635,
      "max": [
        0.9998796582221985,
        -0.00015795230865478516
      ],
      "min": [
        0.00012036971747875214,
        -0.9998419284820557
      ],
      "type": "VEC2"
    },
    {
      "bufferView": 1,
      "byteOffset": 137064,
      "componentType": 5126,
      "count": 3635,
      "max": [
        0.9998796582221985,
        -0.00015795230865478516
      ],
      "min": [
        0.00012036971747875214,
        -0.9998419284820557
      ],
      "type": "VEC2"
    },
    {
      "bufferView": 0,
      "byteOffset": 12744,
      "componentType": 5125,
      "count": 7680,
      "type": "SCALAR"
    },
    {
      "bufferView": 2,
      "byteOffset": 124608,
      "componentType": 5126,
      "count": 734,
      "max": [
        -35.41587829589844,
        28.31089973449707,
        -19.541221618652344
      ],
      "min": [
        -63.21433639526367,
        24.696025848388672,
        -47.348602294921875
      ],
      "type": "VEC3"
    },
    {
      "bufferView": 2,
      "byteOffset": 133416,
      "componentType": 5126,
      "count": 734,
      "max": [
        0.9996353983879089,
        0.7071294784545898,
        0.9999549388885498
      ],
      "min": [
        -0.9996353983879089,
        -1.0,
        -0.9999549388885498
      ],
      "type": "VEC3"
    },
    {
      "bufferView": 0,
      "byteOffset": 43464,
      "componentType": 5125,
      "count": 1692,
      "type": "SCALAR"
    },
    {
      "bufferView": 2,
      "byteOffset": 142224,
      "componentType": 5126,
      "count": 1710,
      "max": [
        -47.998714447021484,
        27.819854736328125,
        -18.692480087280273
      ],
      "min": [
        -50.63149642944336,
        25.18707275390625,
        -20.756500244140625
      ],
      "type": "VEC3"
    },
    {
      "bufferView": 2,
      "byteOffset": 162744,
      "componentType": 5126,
      "count": 1710,
      "max": [
        0.9998486638069153,
        0.9998486638069153,
        1.0
      ],
      "min": [
        -0.9998486638069153,
        -0.9998486638069153,
        -1.0
      ],
      "type": "VEC3"
    },
    {
      "bufferView": 0,
      "byteOffset": 50232,
      "componentType": 5125,
      "count": 3816,
      "type": "SCALAR"
    },
    {
      "bufferView": 2,
      "byteOffset": 183264,
      "componentType": 5126,
      "count": 1379,
      "max": [
        -33.15596008300781,
        27.549457550048828,
        -39.25150680541992
      ],
      "min": [
        -40.91007614135742,
        24.696025848388672,
        -44.48861312866211
      ],
      "type": "VEC3"
    },
    {
      "bufferView": 2,
      "byteOffset": 199812,
      "componentType": 5126,
      "count": 1379,
      "max": [
        0.9852184057235718,
        0.9894761443138123,
        1.0
      ],
      "min": [
        -0.9987841248512268,
        -1.0,
        -0.9997377991676331
      ],
      "type": "VEC3"
    },
    {
      "bufferView": 0,
      "byteOffset": 65496,
      "componentType": 5125,
      "count": 3786,
      "type": "SCALAR"
    },
    {
      "bufferView": 2,
      "byteOffset": 216360,
      "componentType": 5126,
      "count": 1553,
      "max": [
        -33.15596008300781,
        27.549461364746094,
        -22.4012393951416
      ],
      "min": [
        -40.91007614135742,
        24.696025848388672,
        -27.638315200805664
      ],
      "type": "VEC3"
    },
    {
      "bufferView": 2,
      "byteOffset": 234996,
      "componentType": 5126,
      "count": 1553,
      "max": [
        0.9852184057235718,
        0.9894761443138123,
        0.999742329120636
      ],
      "min": [
        -0.9987841248512268,
        -1.0,
        -1.0
      ],
      "type": "VEC3"
    },
    {
      "bufferView": 0,
      "byteOffset": 80640,
      "componentType": 5125,
      "count": 4500,
      "type": "SCALAR"
    },
    {
      "bufferView": 2,
      "byteOffset": 253632,
      "componentType": 5126,
      "count": 1471,
      "max": [
        -57.89345169067383,
        27.549457550048828,
        -39.25150680541992
      ],
      "min": [
        -65.64756774902344,
        24.696025848388672,
        -44.48861312866211
      ],
      "type": "VEC3"
    },
    {
      "bufferView": 2,
      "byteOffset": 271284,
      "componentType": 5126,
      "count": 1471,
      "max": [
        0.9987841248512268,
        0.9894761443138123,
        1.0
      ],
      "min": [
        -0.9852184057235718,
        -1.0,
        -0.9997377991676331
      ],
      "type": "VEC3"
    },
    {
      "bufferView": 0,
      "byteOffset": 98640,
      "componentType": 5125,
      "count": 4008,
      "type": "SCALAR"
    },
    {
      "bufferView": 2,
      "byteOffset": 288936,
      "componentType": 5126,
      "count": 1441,
      "max": [
        -57.89345169067383,
        27.549461364746094,
        -22.4012393951416
      ],
      "min": [
        -65.64756774902344,
        24.696025848388672,
        -27.638315200805664
      ],
      "type": "VEC3"
    },
    {
      "bufferView": 2,
      "byteOffset": 306228,
      "componentType": 5126,
      "count": 1441,
      "max": [
        0.9987841248512268,
        0.9894761443138123,
        0.999742329120636
      ],
      "min": [
        -0.9852184057235718,
        -1.0,
        -1.0
      ],
      "type": "VEC3"
    },
    {
      "bufferView": 0,
      "byteOffset": 114672,
      "componentType": 5125,
      "count": 4248,
      "type": "SCALAR"
    },
    {
      "bufferView": 2,
      "byteOffset": 323520,
      "componentType": 5126,
      "count": 116,
      "max": [
        -36.41551208496094,
        28.31089973449707,
        -20.55530548095703
      ],
      "min": [
        -62.21470260620117,
        28.31089973449707,
        -46.33451461791992
      ],
      "type": "VEC3"
    },
    {
      "bufferView": 2,
      "byteOffset": 324912,
      "componentType": 5126,
      "count": 116,
      "max": [
        0.0,
        1.0,
        -0.0
      ],
      "min": [
        0.0,
        1.0,
        -0.0
      ],
      "type": "VEC3"
    },
    {
      "bufferView": 1,
      "byteOffset": 166144,
      "componentType": 5126,
      "count": 116,
      "max": [
        0.999310314655304,
        -0.0006916522979736328
      ],
      "min": [
        0.0006896927952766418,
        -0.9993085861206055
      ],
      "type": "VEC2"
    },
    {
      "bufferView": 1,
      "byteOffset": 167072,
      "componentType": 5126,
      "count": 116,
      "max": [
        0.999310314655304,
        -0.0006916522979736328
      ],
      "min": [
        0.0006896927952766418,
        -0.9993085861206055
      ],
      "type": "VEC2"
    },
    {
      "bufferView": 1,
      "byteOffset": 168000,
      "componentType": 5126,
      "count": 116,
      "max": [
        0.999310314655304,
        -0.0006916522979736328
      ],
      "min": [
        0.0006896927952766418,
        -0.9993085861206055
      ],
      "type": "VEC2"
    },
    {
      "bufferView": 0,
      "byteOffset": 131664,
      "componentType": 5125,
      "count": 342,
      "type": "SCALAR"
    }
  ],
  "asset": {
    "extras": {
      "author": "Ahmad Riazi (https://sketchfab.com/ahmadriazi)",
      "license": "CC-BY-4.0 (http://creativecommons.org/licenses/by/4.0/)",
      "source": "https://sketchfab.com/3d-models/citizen-watch-50dcb83a78ae416cbfa122299543a211",
      "title": "Citizen watch"
    },
    "generator": "Sketchfab-15.29.0",
    "version": "2.0"
  },
  "bufferViews": [
    {
      "buffer": 0,
      "byteLength": 133032,
      "name": "floatBufferViews",
      "target": 34963
    },
    {
      "buffer": 0,
      "byteLength": 168928,
      "byteOffset": 133032,
      "byteStride": 8,
      "name": "floatBufferViews",
      "target": 34962
    },
    {
      "buffer": 0,
      "byteLength": 326304,
      "byteOffset": 301960,
      "byteStride": 12,
      "name": "floatBufferViews",
      "target": 34962
    }
  ],
  "buffers": [
    {
      "byteLength": 628264,
      "uri": "scene.bin"
    }
  ],
  "extensionsUsed": [
    "KHR_materials_specular"
  ],
  "images": [
    {
      "uri": "textures/Material_2_1.001_baseColor.jpeg"
    },
    {
      "uri": "textures/Material_2_1.001_metallicRoughness.png"
    },
    {
      "uri": "textures/Material_2_1_baseColor.jpeg"
    },
    {
      "uri": "textures/Material_2_1_metallicRoughness.png"
    },
    {
      "uri": "textures/Custom_baseColor.jpeg"
    },
    {
      "uri": "textures/Custom_metallicRoughness.png"
    }
  ],
  "materials": [
    {
      "doubleSided": true,
      "name": "Material_2_1.001",
      "pbrMetallicRoughness": {
        "baseColorTexture": {
          "index": 0
        },
        "metallicRoughnessTexture": {
          "index": 1
        }
      }
    },
    {
      "doubleSided": true,
      "extensions": {
        "KHR_materials_specular": {
          "specularColorFactor": [
            1.0,
            1.0,
            1.0
          ],
          "specularFactor": 0.48000146286160106
        }
      },
      "name": "Material_2_1",
      "pbrMetallicRoughness": {
        "baseColorTexture": {
          "index": 2
        },
        "metallicRoughnessTexture": {
          "index": 3
        }
      }
    },
    {
      "doubleSided": true,
      "name": "Material_2",
      "pbrMetallicRoughness": {
        "baseColorFactor": [
          0.471933,
          0.54,
          0.490084,
          1.0
        ],
        "roughnessFactor": 0.0204
      }
    },
    {
      "doubleSided": true,
      "name": "Custom",
      "pbrMetallicRoughness": {
        "baseColorTexture": {
          "index": 4
        },
        "metallicRoughnessTexture": {
          "index": 5
        }
      }
    }
  ],
  "meshes": [
    {
      "name": "Object_0",
      "primitives": [
        {
          "attributes": {
            "NORMAL": 1,
            "POSITION": 0,
            "TEXCOORD_0": 2,
            "TEXCOORD_1": 3,
            "TEXCOORD_2": 4,
            "TEXCOORD_3": 5
          },
          "indices": 6,
          "material": 0,
          "mode": 4
        }
      ]
    },
    {
      "name": "Object_1",
      "primitives": [
        {
          "attributes": {
            "NORMAL": 8,
            "POSITION": 7,
            "TEXCOORD_0": 9,
            "TEXCOORD_1": 10,
            "TEXCOORD_2": 11,
            "TEXCOORD_3": 12
          },
          "indices": 13,
          "material": 1,
          "mode": 4
        }
      ]
    },
    {
      "name": "Object_2",
      "primitives": [
        {
          "attributes": {
            "NORMAL": 15,
            "POSITION": 14
          },
          "indices": 16,
          "material": 2,
          "mode": 4
        }
      ]
    },
    {
      "name": "Object_3",
      "primitives": [
        {
          "attributes": {
            "NORMAL": 18,
            "POSITION": 17
          },
          "indices": 19,
          "material": 2,
          "mode": 4
        }
      ]
    },
    {
      "name": "Object_4",
      "primitives": [
        {
          "attributes": {
            "NORMAL": 21,
            "POSITION": 20
          },
          "indices": 22,
          "material": 2,
          "mode": 4
        }
      ]
    },
    {
      "name": "Object_5",
      "primitives": [
        {
          "attributes": {
            "NORMAL": 24,
            "POSITION": 23
          },
          "indices": 25,
          "material": 2,
          "mode": 4
        }
      ]
    },
    {
      "name": "Object_6",
      "primitives": [
        {
          "attributes": {
            "NORMAL": 27,
            "POSITION": 26
          },
          "indices": 28,
          "material": 2,
          "mode": 4
        }
      ]
    },
    {
      "name": "Object_7",
      "primitives": [
        {
          "attributes": {
            "NORMAL": 30,
            "POSITION": 29
          },
          "indices": 31,
          "material": 2,
          "mode": 4
        }
      ]
    },
    {
      "name": "Object_8",
      "primitives": [
        {
          "attributes": {
            "NORMAL": 33,
            "POSITION": 32,
            "TEXCOORD_0": 34,
            "TEXCOORD_1": 35,
            "TEXCOORD_2": 36
          },
          "indices": 37,
          "material": 3,
          "mode": 4
        }
      ]
    }
  ],
  "nodes": [
    {
      "children": [
        1
      ],
      "matrix": [
        1.0,
        0.0,
        0.0,
        0.0,
        0.0,
        2.220446049250313e-16,
        -1.0,
        0.0,
        0.0,
        1.0,
        2.220446049250313e-16,
        0.0,
        0.0,
        0.0,
        0.0,
        1.0
      ],
      "name": "Sketchfab_model"
    },
    {
      "children": [
        2
      ],
      "name": "root"
    },
    {
      "children": [
        3
      ],
      "matrix": [
        1.0,
        0.0,
        0.0,
        0.0,
        0.0,
        2.220446049250313e-16,
        1.0,
        0.0,
        0.0,
        -1.0,
        2.220446049250313e-16,
        0.0,
        0.0,
        0.0,
        0.0,
        1.0
      ],
      "name": "GLTF_SceneRootNode"
    },
    {
      "children": [
        4
      ],
      "matrix": [
        1.0,
        0.0,
        0.0,
        0.0,
        0.0,
        1.0,
        0.0,
        0.0,
        0.0,
        0.0,
        1.0,
        0.0,
        49.401763916015625,
        26.706830978393555,
        33.02054214477539,
        1.0
      ],
      "name": "WATCH NEDA_32"
    },
    {
      "children": [
        5,
        10,
        15,
        40
      ],
      "name": "RootNode_31"
    },
    {
      "children": [
        6
      ],
      "name": "BAND SHORT_3"
    },
    {
      "children": [
        7
      ],
      "name": "Object_5_2"
    },
    {
      "children": [
        8
      ],
      "name": "Object_5.001_1"
    },
    {
      "children": [
        9
      ],
      "name": "Object_5.002_0"
    },
    {
      "mesh": 0,
      "name": "Object_9"
    },
    {
      "children": [
        11
      ],
      "name": "BAND TALL_7"
    },
    {
      "children": [
        12
      ],
      "name": "Object_4_6"
    },
    {
      "children": [
        13
      ],
      "name": "Object_4.001_5"
    },
    {
      "children": [
        14
      ],
      "name": "Object_4.002_4"
    },
    {
      "mesh": 1,
      "name": "Object_14"
    },
    {
      "children": [
        16,
        20,
        24,
        28,
        32,
        36
      ],
      "name": "METAL_26"
    },
    {
      "children": [
        17
      ],
      "name": "Object_1_10"
    },
    {
      "children": [
        18
      ],
      "name": "Object_1.001_9"
    },
    {
      "children": [
        19
      ],
      "matrix": [
        1.041769027709961,
        0.0,
        0.0,
        0.0,
        0.0,
        1.041769027709961,
        0.0,
        0.0,
        0.0,
        0.0,
        1.041769027709961,
        0.0,
        2.063465118408203,
        -1.107025146484375,
        1.3792381286621094,
        1.0
      ],
      "name": "Object_1.002_8"
    },
    {
      "mesh": 2,
      "name": "Object_19"
    },
    {
      "children": [
        21
      ],
      "name": "Object_10_13"
    },
    {
      "children": [
        22
      ],
      "name": "Object_10.001_12"
    },
    {
      "children": [
        23
      ],
      "matrix": [
        1.041769027709961,
        0.0,
        0.0,
        0.0,
        0.0,
        1.041769027709961,
        0.0,
        0.0,
        0.0,
        0.0,
        1.041769027709961,
        0.0,
        2.063465118408203,
        -1.107025146484375,
        1.3792381286621094,
        1.0
      ],
      "name": "Object_10.002_11"
    },
    {
      "mesh": 3,
      "name": "Object_23"
    },
    {
      "children": [
        25
      ],
      "name": "Object_6_16"
    },
    {
      "children": [
        26
      ],
      "name": "Object_6.001_15"
    },
    {
      "children": [
        27
      ],
      "matrix": [
        1.041769027709961,
        0.0,
        0.0,
        0.0,
        0.0,
        1.041769027709961,
        0.0,
        0.0,
        0.0,
        0.0,
        1.041769027709961,
        0.0,
        2.063465118408203,
        -1.107025146484375,
        1.3792381286621094,
        1.0
      ],
      "name": "Object_6.002_14"
    },
    {
      "mesh": 4,
      "name": "Object_27"
    },
    {
      "children": [
        29
      ],
      "name": "Object_7_19"
    },
    {
      "children": [
        30
      ],
      "name": "Object_7.001_18"
    },
    {
      "children": [
        31
      ],
      "matrix": [
        1.041769027709961,
        0.0,
        0.0,
        0.0,
        0.0,
        1.041769027709961,
        0.0,
        0.0,
        0.0,
        0.0,
        1.041769027709961,
        0.0,
        2.063465118408203,
        -1.107025146484375,
        1.3792381286621094,
        1.0
      ],
      "name": "Object_7.002_17"
    },
    {
      "mesh": 5,
      "name": "Object_31"
    },
    {
      "children": [
        33
      ],
      "name": "Object_8_22"
    },
    {
      "children": [
        34
      ],
      "name": "Object_8.001_21"
    },
    {
      "children": [
        35
      ],
      "matrix": [
        1.041769027709961,
        0.0,
        0.0,
        0.0,
        0.0,
        1.041769027709961,
        0.0,
        0.0,
        0.0,
        0.0,
        1.041769027709961,
        0.0,
        2.063465118408203,
        -1.107025146484375,
        1.3792381286621094,
        1.0
      ],
      "name": "Object_8.002_20"
    },
    {
      "mesh": 6,
      "name": "Object_35"
    },
    {
      "children": [
        37
      ],
      "name": "Object_9_25"
    },
    {
      "children": [
        38
      ],
      "name": "Object_9.001_24"
    },
    {
      "children": [
        39
      ],
      "matrix": [
        1.041769027709961,
        0.0,
        0.0,
        0.0,
        0.0,
        1.041769027709961,
        0.0,
        0.0,
        0.0,
        0.0,
        1.041769027709961,
        0.0,
        2.063465118408203,
        -1.107025146484375,
        1.3792381286621094,
        1.0
      ],
      "name": "Object_9.002_23"
    },
    {
      "mesh": 7,
      "name": "Object_39"
    },
    {
      "children": [
        41
      ],
      "name": "SAFHE_30"
    },
    {
      "children": [
        42
      ],
      "name": "Object_3_29"
    },
    {
      "children": [
        43
      ],
      "name": "Object_3.001_28"
    },
    {
      "children": [
        44
      ],
      "matrix": [
        1.041769027709961,
        0.0,
        0.0,
        0.0,
        0.0,
        1.041769027709961,
        0.0,
        0.0,
        0.0,
        0.0,
        1.041769027709961,
        0.0,
        2.063465118408203,
        -1.107025146484375,
        1.3792381286621094,
        1.0
      ],
      "name": "Object_3.002_27"
    },
    {
      "mesh": 8,
      "name": "Object_44"
    }
  ],
  "samplers": [
    {
      "magFilter": 9729,
      "minFilter": 9987,
      "wrapS": 10497,
      "wrapT": 10497
    }
  ],
  "scene": 0,
  "scenes": [
    {
      "name": "Sketchfab_Scene",
      "nodes": [
        0
      ]
    }
  ],
  "textures": [
    {
      "sampler": 0,
      "source": 0
    },
    {
      "sampler": 0,
      "source": 1
    },
    {
      "sampler": 0,
      "source": 2
    },
    {
      "sampler": 0,
      "source": 3
    },
    {
      "sampler": 0,
      "source": 4
    },
    {
      "sampler": 0,
      "source": 5
    }
  ]
}
