{
  "accessors": [
    {
      "bufferView": 2,
      "componentType": 5126,
      "count": 4346,
      "max": [
        3.4517359733581543,
        6.753871917724609,
        1.8830620050430298
      ],
      "min": [
        -3.086458921432495,
        4.119602203369141,
        -1.1681309938430786
      ],
      "type": "VEC3"
    },
    {
      "bufferView": 2,
      "byteOffset": 52152,
      "componentType": 5126,
      "count": 4346,
      "max": [
        0.999529242515564,
        0.999943196773529,
        0.9997485280036926
      ],
      "min": [
        -0.9993537664413452,
        -0.9999391436576843,
        -0.9993667006492615
      ],
      "type": "VEC3"
    },
    {
      "bufferView": 1,
      "componentType": 5126,
      "count": 4346,
      "max": [
        0.9364979863166809,
        0.9995499849319458
      ],
      "min": [
        7.000000096013537e-06,
        5.500000042957254e-05
      ],
      "type": "VEC2"
    },
    {
      "bufferView": 0,
      "componentType": 5125,
      "count": 21018,
      "type": "SCALAR"
    }
  ],
  "asset": {
    "extras": {
      "author": "Tomás Fernández Castillo (https://sketchfab.com/tfernndez)",
      "license": "CC-BY-4.0 (http://creativecommons.org/licenses/by/4.0/)",
      "source": "https://sketchfab.com/3d-models/zapatilla-asics-gel-nimbus-23-low-poly-1d4a1f38b12543b595566e3f410afab4",
      "title": "Zapatilla Asics Gel-Nimbus 23 (Low Poly)"
    },
    "generator": "Sketchfab-14.38.0",
    "version": "2.0"
  },
  "bufferViews": [
    {
      "buffer": 0,
      "byteLength": 84072,
      "name": "floatBufferViews",
      "target": 34963
    },
    {
      "buffer": 0,
      "byteLength": 34768,
      "byteOffset": 84072,
      "byteStride": 8,
      "name": "floatBufferViews",
      "target": 34962
    },
    {
      "buffer": 0,
      "byteLength": 104304,
      "byteOffset": 118840,
      "byteStride": 12,
      "name": "floatBufferViews",
      "target": 34962
    }
  ],
  "buffers": [
    {
      "byteLength": 223144,
      "uri": "scene.bin"
    }
  ],
  "extensionsUsed": [
    "KHR_materials_unlit"
  ],
  "images": [
    {
      "uri": "textures/zapadeci7kV2_baseColor.jpeg"
    }
  ],
  "materials": [
    {
      "doubleSided": true,
      "extensions": {
        "KHR_materials_unlit": {}
      },
      "name": "zapadeci7kV2",
      "pbrMetallicRoughness": {
        "baseColorTexture": {
          "index": 0
        },
        "metallicFactor": 0.0
      }
    }
  ],
  "meshes": [
    {
      "name": "Object_0",
      "primitives": [
        {
          "attributes": {
            "NORMAL": 1,
            "POSITION": 0,
            "TEXCOORD_0": 2
          },
          "indices": 3,
          "material": 0,
          "mode": 4
        }
      ]
    }
  ],
  "nodes": [
    {
      "children": [
        1
      ],
      "matrix": [
        0.9953927993774414,
        0.01910211518406866,
        0.09395916759967804,
        0.0,
        0.09584169089794159,
        -0.17007640004157998,
        -0.9807590842247009,
        0.0,
        -0.0027543362230062485,
        0.9852457046508789,
        -0.17112359404563882,
        0.0,
        0.0,
        0.0,
        0.0,
        1.0
      ],
      "name": "Sketchfab_model"
    },
    {
      "children": [
        2
      ],
      "name": "zapadeci7kV2.obj.cleaner.materialmerger.gles"
    },
    {
      "mesh": 0,
      "name": "Object_2"
    }
  ],
  "samplers": [
    {
      "magFilter": 9729,
      "minFilter": 9987,
      "wrapS": 10497,
      "wrapT": 10497
    }
  ],
  "scene": 0,
  "scenes": [
    {
      "name": "Sketchfab_Scene",
      "nodes": [
        0
      ]
    }
  ],
  "textures": [
    {
      "sampler": 0,
      "source": 0
    }
  ]
}
